<?xml version="1.0" standalone="no"?>
<svg xmlns="http://www.w3.org/2000/svg" viewBox="0 0 213.768 29" width="213.768" height="29"><g fill="#6a8bff" color="#6a8bff" transform="translate(0, 0) scale(0.29)"><svg width="100.0" height="100.0" x="0.0" y="0.0" viewBox="0 0 100 100"><g><path style="color:#000000;font-style:normal;font-variant:normal;font-weight:normal;font-stretch:normal;font-size:medium;line-height:normal;font-family:sans-serif;text-indent:0;text-align:start;text-decoration:none;text-decoration-line:none;text-decoration-style:solid;text-decoration-color:#000000;letter-spacing:normal;word-spacing:normal;text-transform:none;direction:ltr;block-progression:tb;writing-mode:lr-tb;baseline-shift:baseline;text-anchor:start;white-space:normal;clip-rule:nonzero;display:inline;overflow:visible;visibility:visible;opacity:1;isolation:auto;mix-blend-mode:normal;color-interpolation:sRGB;color-interpolation-filters:linearRGB;solid-color:#000000;solid-opacity:1;fill:#000000;fill-opacity:1;fill-rule:nonzero;stroke:none;stroke-width:4;stroke-linecap:butt;stroke-linejoin:miter;stroke-miterlimit:4;stroke-dasharray:none;stroke-dashoffset:0;stroke-opacity:1;color-rendering:auto;image-rendering:auto;shape-rendering:auto;text-rendering:auto;enable-background:accumulate" d="M 53.814453 9.5625 L 44.685547 18.691406 L 12.279297 18.691406 L 12.470703 87.892578 L 14.464844 87.892578 L 78.685547 87.892578 L 89.054688 77.523438 L 89.007812 9.5625 L 53.814453 9.5625 z M 55.470703 13.5625 L 85.009766 13.5625 L 85.015625 21.685547 L 47.347656 21.685547 L 55.470703 13.5625 z M 46.347656 22.685547 L 85.015625 22.685547 L 85.052734 75.869141 L 77.029297 83.892578 L 16.458984 83.892578 L 16.291016 22.691406 L 46.341797 22.691406 L 46.347656 22.685547 z M 31.664062 35.585938 L 28.835938 38.414062 L 41.796875 51.375 L 29.335938 63.835938 L 32.164062 66.664062 L 47.453125 51.375 L 31.664062 35.585938 z M 46.75 63 L 46.75 67 L 74.5 67 L 74.5 63 L 46.75 63 z "></path></g></svg></g><line x1="41" y1="1" x2="41" y2="28" stroke="#5e24c3" stroke-linecap="round"></line><path fill="#5e24c3" fill-rule="nonzero" d="M2.83 16.97L0.12 16.97Q0 16.97 0 16.85L0 16.85L0.02 0.36Q0.02 0.26 0.12 0.26L0.12 0.26L2.81 0.26Q2.90 0.26 2.90 0.36L2.90 0.36L2.93 16.85Q2.93 16.97 2.83 16.97L2.83 16.97ZM7.66 16.97L5.26 16.97Q5.06 16.97 5.06 16.80L5.06 16.80L5.04 0.46Q5.04 0.26 5.23 0.26L5.23 0.26L7.39 0.26L11.45 9.72L11.33 0.46Q11.33 0.26 11.54 0.26L11.54 0.26L13.92 0.26Q14.06 0.26 14.06 0.46L14.06 0.46L14.09 16.82Q14.09 16.97 13.97 16.97L13.97 16.97L11.86 16.97L7.70 8.14L7.87 16.78Q7.87 16.97 7.66 16.97L7.66 16.97ZM21.29 16.97L18.58 16.97Q18.48 16.97 18.48 16.85L18.48 16.85L18.48 3.17L15.36 3.17Q15.24 3.17 15.24 3.05L15.24 3.05L15.26 0.36Q15.26 0.26 15.36 0.26L15.36 0.26L24.48 0.26Q24.60 0.26 24.60 0.36L24.60 0.36L24.60 3.05Q24.60 3.17 24.50 3.17L24.50 3.17L21.36 3.17L21.38 16.85Q21.38 16.97 21.29 16.97L21.29 16.97ZM33.62 16.97L25.87 16.97Q25.78 16.97 25.78 16.85L25.78 16.85L25.80 0.36Q25.80 0.26 25.90 0.26L25.90 0.26L33.60 0.26Q33.70 0.26 33.70 0.38L33.70 0.38L33.70 3.07Q33.70 3.17 33.60 3.17L33.60 3.17L28.68 3.17L28.68 6.91L33.60 6.91Q33.70 6.91 33.70 7.01L33.70 7.01L33.72 9.72Q33.72 9.82 33.62 9.82L33.62 9.82L28.68 9.82L28.68 14.02L33.62 14.02Q33.72 14.02 33.72 14.14L33.72 14.14L33.72 16.87Q33.72 16.97 33.62 16.97L33.62 16.97ZM39.89 17.21L39.89 17.21Q38.57 17.21 37.50 16.55Q36.43 15.89 35.81 14.78Q35.18 13.68 35.18 12.31L35.18 12.31L35.21 4.82Q35.21 3.50 35.82 2.41Q36.43 1.32 37.50 0.66Q38.57 0 39.89 0L39.89 0Q41.21 0 42.26 0.65Q43.32 1.30 43.94 2.39Q44.57 3.48 44.57 4.82L44.57 4.82L44.57 5.93Q44.57 6.02 44.47 6.02L44.47 6.02L41.78 6.02Q41.69 6.02 41.69 5.93L41.69 5.93L41.69 4.82Q41.69 4.03 41.17 3.46Q40.66 2.88 39.89 2.88L39.89 2.88Q39.02 2.88 38.57 3.47Q38.11 4.06 38.11 4.82L38.11 4.82L38.11 12.31Q38.11 13.20 38.63 13.75Q39.14 14.30 39.89 14.30L39.89 14.30Q40.66 14.30 41.17 13.69Q41.69 13.08 41.69 12.31L41.69 12.31L41.69 11.21Q41.69 11.11 41.78 11.11L41.78 11.11L44.50 11.11Q44.59 11.11 44.59 11.21L44.59 11.21L44.59 12.31Q44.59 13.68 43.96 14.78Q43.32 15.89 42.26 16.55Q41.21 17.21 39.89 17.21ZM49.15 16.97L46.44 16.97Q46.34 16.97 46.34 16.85L46.34 16.85L46.37 0.36Q46.37 0.26 46.49 0.26L46.49 0.26L49.15 0.26Q49.27 0.26 49.27 0.36L49.27 0.36L49.25 6.89L52.85 6.89L52.85 0.36Q52.85 0.26 52.94 0.26L52.94 0.26L55.61 0.26Q55.73 0.26 55.73 0.36L55.73 0.36L55.78 16.85Q55.78 16.97 55.66 16.97L55.66 16.97L52.97 16.97Q52.85 16.97 52.85 16.85L52.85 16.85L52.85 9.79L49.25 9.79L49.25 16.85Q49.25 16.97 49.15 16.97L49.15 16.97ZM69.91 16.97L60.96 16.97Q60.84 16.97 60.84 16.85L60.84 16.85L60.84 14.14Q60.84 14.09 60.89 14.04L60.89 14.04L66.82 5.90Q66.98 5.69 67.09 5.34Q67.20 4.99 67.20 4.73L67.20 4.73Q67.20 4.03 66.70 3.44Q66.19 2.86 65.42 2.86L65.42 2.86Q64.68 2.86 64.16 3.42Q63.65 3.98 63.65 4.85L63.65 4.85L63.65 6.02Q63.65 6.14 63.53 6.14L63.53 6.14L60.84 6.14Q60.74 6.14 60.74 6.02L60.74 6.02L60.74 4.85Q60.74 3.50 61.40 2.40Q62.06 1.30 63.13 0.65Q64.20 0 65.42 0L65.42 0Q66.72 0 67.78 0.66Q68.83 1.32 69.47 2.40Q70.10 3.48 70.10 4.73L70.10 4.73Q70.10 5.52 69.83 6.34Q69.55 7.15 69.07 7.78L69.07 7.78L64.51 14.04L69.91 14.04Q70.01 14.04 70.01 14.14L70.01 14.14L70.01 16.85Q70.01 16.97 69.91 16.97L69.91 16.97ZM74.64 16.97L71.93 16.97Q71.83 16.97 71.83 16.87L71.83 16.87L71.83 14.16Q71.83 14.06 71.93 14.06L71.93 14.06L74.64 14.06Q74.74 14.06 74.74 14.16L74.74 14.16L74.74 16.87Q74.74 16.97 74.64 16.97L74.64 16.97ZM81.38 17.21L81.38 17.21Q79.85 17.21 78.67 16.55Q77.50 15.89 76.84 14.80Q76.18 13.70 76.18 12.38L76.18 12.38L76.20 4.78Q76.20 3.46 76.86 2.38Q77.52 1.30 78.70 0.65Q79.87 0 81.38 0L81.38 0Q82.92 0 84.07 0.65Q85.22 1.30 85.88 2.38Q86.54 3.46 86.54 4.78L86.54 4.78L86.57 12.38Q86.57 13.70 85.91 14.80Q85.25 15.89 84.08 16.55Q82.92 17.21 81.38 17.21ZM83.66 12.38L83.66 12.38L83.64 4.78Q83.64 3.94 83.02 3.41Q82.39 2.88 81.38 2.88L81.38 2.88Q80.35 2.88 79.73 3.41Q79.10 3.94 79.10 4.78L79.10 4.78L79.10 12.38Q79.10 13.27 79.73 13.79Q80.35 14.30 81.38 14.30L81.38 14.30Q82.39 14.30 83.03 13.79Q83.66 13.27 83.66 12.38ZM96.02 17.21L96.02 17.21Q94.73 17.21 93.66 16.55Q92.59 15.89 91.96 14.80Q91.32 13.70 91.32 12.38L91.32 12.38L91.32 11.28Q91.32 11.16 91.44 11.16L91.44 11.16L94.13 11.16Q94.22 11.16 94.22 11.28L94.22 11.28L94.22 12.38Q94.22 13.18 94.75 13.74Q95.28 14.30 96.02 14.30L96.02 14.30Q96.77 14.30 97.30 13.73Q97.82 13.15 97.82 12.38L97.82 12.38Q97.82 11.50 96.67 10.85L96.67 10.85Q96.29 10.63 95.47 10.18Q94.66 9.72 93.94 9.31L93.94 9.31Q92.62 8.54 91.98 7.38Q91.34 6.22 91.34 4.75L91.34 4.75Q91.34 3.41 91.99 2.34Q92.64 1.27 93.71 0.65Q94.78 0.02 96.02 0.02L96.02 0.02Q97.30 0.02 98.36 0.66Q99.43 1.30 100.07 2.36Q100.70 3.43 100.70 4.75L100.70 4.75L100.70 6.72Q100.70 6.82 100.61 6.82L100.61 6.82L97.92 6.82Q97.82 6.82 97.82 6.72L97.82 6.72L97.80 4.75Q97.80 3.91 97.27 3.38Q96.74 2.86 96.02 2.86L96.02 2.86Q95.28 2.86 94.75 3.42Q94.22 3.98 94.22 4.75L94.22 4.75Q94.22 5.54 94.56 6.07Q94.90 6.60 95.78 7.08L95.78 7.08Q95.90 7.15 96.25 7.33Q96.60 7.51 97.01 7.74Q97.42 7.97 97.74 8.14Q98.06 8.30 98.14 8.35L98.14 8.35Q99.34 9.02 100.03 10.00Q100.73 10.97 100.73 12.38L100.73 12.38Q100.73 13.75 100.09 14.84Q99.46 15.94 98.39 16.57Q97.32 17.21 96.02 17.21ZM106.92 16.97L104.16 16.97Q104.09 16.97 104.09 16.87L104.09 16.87L104.11 10.06L100.90 0.36Q100.87 0.26 100.97 0.26L100.97 0.26L103.63 0.26Q103.75 0.26 103.78 0.36L103.78 0.36L105.55 6.82L107.35 0.36Q107.38 0.26 107.47 0.26L107.47 0.26L110.16 0.26Q110.26 0.26 110.23 0.36L110.23 0.36L106.99 9.96L107.02 16.87Q107.02 16.97 106.92 16.97L106.92 16.97ZM115.15 17.21L115.15 17.21Q113.86 17.21 112.79 16.55Q111.72 15.89 111.08 14.80Q110.45 13.70 110.45 12.38L110.45 12.38L110.45 11.28Q110.45 11.16 110.57 11.16L110.57 11.16L113.26 11.16Q113.35 11.16 113.35 11.28L113.35 11.28L113.35 12.38Q113.35 13.18 113.88 13.74Q114.41 14.30 115.15 14.30L115.15 14.30Q115.90 14.30 116.42 13.73Q116.95 13.15 116.95 12.38L116.95 12.38Q116.95 11.50 115.80 10.85L115.80 10.85Q115.42 10.63 114.60 10.18Q113.78 9.72 113.06 9.31L113.06 9.31Q111.74 8.54 111.11 7.38Q110.47 6.22 110.47 4.75L110.47 4.75Q110.47 3.41 111.12 2.34Q111.77 1.27 112.84 0.65Q113.90 0.02 115.15 0.02L115.15 0.02Q116.42 0.02 117.49 0.66Q118.56 1.30 119.20 2.36Q119.83 3.43 119.83 4.75L119.83 4.75L119.83 6.72Q119.83 6.82 119.74 6.82L119.74 6.82L117.05 6.82Q116.95 6.82 116.95 6.72L116.95 6.72L116.93 4.75Q116.93 3.91 116.40 3.38Q115.87 2.86 115.15 2.86L115.15 2.86Q114.41 2.86 113.88 3.42Q113.35 3.98 113.35 4.75L113.35 4.75Q113.35 5.54 113.69 6.07Q114.02 6.60 114.91 7.08L114.91 7.08Q115.03 7.15 115.38 7.33Q115.73 7.51 116.14 7.74Q116.54 7.97 116.87 8.14Q117.19 8.30 117.26 8.35L117.26 8.35Q118.46 9.02 119.16 10.00Q119.86 10.97 119.86 12.38L119.86 12.38Q119.86 13.75 119.22 14.84Q118.58 15.94 117.52 16.57Q116.45 17.21 115.15 17.21ZM126.53 16.97L123.82 16.97Q123.72 16.97 123.72 16.85L123.72 16.85L123.72 3.17L120.60 3.17Q120.48 3.17 120.48 3.05L120.48 3.05L120.50 0.36Q120.50 0.26 120.60 0.26L120.60 0.26L129.72 0.26Q129.84 0.26 129.84 0.36L129.84 0.36L129.84 3.05Q129.84 3.17 129.74 3.17L129.74 3.17L126.60 3.17L126.62 16.85Q126.62 16.97 126.53 16.97L126.53 16.97ZM138.86 16.97L131.11 16.97Q131.02 16.97 131.02 16.85L131.02 16.85L131.04 0.36Q131.04 0.26 131.14 0.26L131.14 0.26L138.84 0.26Q138.94 0.26 138.94 0.38L138.94 0.38L138.94 3.07Q138.94 3.17 138.84 3.17L138.84 3.17L133.92 3.17L133.92 6.91L138.84 6.91Q138.94 6.91 138.94 7.01L138.94 7.01L138.96 9.72Q138.96 9.82 138.86 9.82L138.86 9.82L133.92 9.82L133.92 14.02L138.86 14.02Q138.96 14.02 138.96 14.14L138.96 14.14L138.96 16.87Q138.96 16.97 138.86 16.97L138.86 16.97ZM143.90 16.97L141.19 16.97Q141.10 16.97 141.10 16.85L141.10 16.85L141.14 0.36Q141.14 0.26 141.24 0.26L141.24 0.26L144.17 0.26Q144.26 0.26 144.34 0.36L144.34 0.36L146.52 3.53L148.70 0.36Q148.78 0.26 148.87 0.26L148.87 0.26L151.82 0.26Q151.92 0.26 151.92 0.36L151.92 0.36L151.97 16.85Q151.97 16.97 151.87 16.97L151.87 16.97L149.16 16.97Q149.06 16.97 149.06 16.85L149.06 16.85L149.04 4.61L146.52 8.26L144.02 4.61L144 16.85Q144 16.97 143.90 16.97L143.90 16.97ZM158.06 17.21L158.06 17.21Q156.77 17.21 155.70 16.55Q154.63 15.89 154.00 14.80Q153.36 13.70 153.36 12.38L153.36 12.38L153.36 11.28Q153.36 11.16 153.48 11.16L153.48 11.16L156.17 11.16Q156.26 11.16 156.26 11.28L156.26 11.28L156.26 12.38Q156.26 13.18 156.79 13.74Q157.32 14.30 158.06 14.30L158.06 14.30Q158.81 14.30 159.34 13.73Q159.86 13.15 159.86 12.38L159.86 12.38Q159.86 11.50 158.71 10.85L158.71 10.85Q158.33 10.63 157.51 10.18Q156.70 9.72 155.98 9.31L155.98 9.31Q154.66 8.54 154.02 7.38Q153.38 6.22 153.38 4.75L153.38 4.75Q153.38 3.41 154.03 2.34Q154.68 1.27 155.75 0.65Q156.82 0.02 158.06 0.02L158.06 0.02Q159.34 0.02 160.40 0.66Q161.47 1.30 162.11 2.36Q162.74 3.43 162.74 4.75L162.74 4.75L162.74 6.72Q162.74 6.82 162.65 6.82L162.65 6.82L159.96 6.82Q159.86 6.82 159.86 6.72L159.86 6.72L159.84 4.75Q159.84 3.91 159.31 3.38Q158.78 2.86 158.06 2.86L158.06 2.86Q157.32 2.86 156.79 3.42Q156.26 3.98 156.26 4.75L156.26 4.75Q156.26 5.54 156.60 6.07Q156.94 6.60 157.82 7.08L157.82 7.08Q157.94 7.15 158.29 7.33Q158.64 7.51 159.05 7.74Q159.46 7.97 159.78 8.14Q160.10 8.30 160.18 8.35L160.18 8.35Q161.38 9.02 162.07 10.00Q162.77 10.97 162.77 12.38L162.77 12.38Q162.77 13.75 162.13 14.84Q161.50 15.94 160.43 16.57Q159.36 17.21 158.06 17.21Z" transform="translate(51, 6.016)"></path></svg>