<?xml version="1.0" standalone="no"?>
<svg xmlns="http://www.w3.org/2000/svg" viewBox="0 0 101.391 117.076" width="101.391" height="117.076"><polygon fill="none" stroke="#6a8bff" stroke-width="3" points="99.891,30.019 99.891,87.05699999999999 50.6955,115.576 1.5,87.05699999999999 1.5,30.019 50.6955,1.5"></polygon><g fill="#5e24c3" color="#5e24c3" transform="translate(28.695500000000003 22.5) scale(0.44)"><svg width="100.0" height="100.0" x="0.0" y="0.0" viewBox="0 0 100 100"><g><path style="color:#000000;font-style:normal;font-variant:normal;font-weight:normal;font-stretch:normal;font-size:medium;line-height:normal;font-family:sans-serif;text-indent:0;text-align:start;text-decoration:none;text-decoration-line:none;text-decoration-style:solid;text-decoration-color:#000000;letter-spacing:normal;word-spacing:normal;text-transform:none;direction:ltr;block-progression:tb;writing-mode:lr-tb;baseline-shift:baseline;text-anchor:start;white-space:normal;clip-rule:nonzero;display:inline;overflow:visible;visibility:visible;opacity:1;isolation:auto;mix-blend-mode:normal;color-interpolation:sRGB;color-interpolation-filters:linearRGB;solid-color:#000000;solid-opacity:1;fill:#000000;fill-opacity:1;fill-rule:nonzero;stroke:none;stroke-width:4;stroke-linecap:butt;stroke-linejoin:miter;stroke-miterlimit:4;stroke-dasharray:none;stroke-dashoffset:0;stroke-opacity:1;color-rendering:auto;image-rendering:auto;shape-rendering:auto;text-rendering:auto;enable-background:accumulate" d="M 53.814453 9.5625 L 44.685547 18.691406 L 12.279297 18.691406 L 12.470703 87.892578 L 14.464844 87.892578 L 78.685547 87.892578 L 89.054688 77.523438 L 89.007812 9.5625 L 53.814453 9.5625 z M 55.470703 13.5625 L 85.009766 13.5625 L 85.015625 21.685547 L 47.347656 21.685547 L 55.470703 13.5625 z M 46.347656 22.685547 L 85.015625 22.685547 L 85.052734 75.869141 L 77.029297 83.892578 L 16.458984 83.892578 L 16.291016 22.691406 L 46.341797 22.691406 L 46.347656 22.685547 z M 31.664062 35.585938 L 28.835938 38.414062 L 41.796875 51.375 L 29.335938 63.835938 L 32.164062 66.664062 L 47.453125 51.375 L 31.664062 35.585938 z M 46.75 63 L 46.75 67 L 74.5 67 L 74.5 63 L 46.75 63 z "></path></g></svg></g><path fill="#5e24c3" fill-rule="nonzero" d="M3.30 19.80L0.14 19.80Q0 19.80 0 19.66L0 19.66L0.03 0.42Q0.03 0.31 0.14 0.31L0.14 0.31L3.28 0.31Q3.39 0.31 3.39 0.42L3.39 0.42L3.42 19.66Q3.42 19.80 3.30 19.80L3.30 19.80ZM15.93 19.80L5.49 19.80Q5.35 19.80 5.35 19.66L5.35 19.66L5.35 16.49Q5.35 16.44 5.40 16.38L5.40 16.38L12.32 6.89Q12.52 6.64 12.64 6.23Q12.77 5.82 12.77 5.52L12.77 5.52Q12.77 4.70 12.18 4.02Q11.59 3.33 10.70 3.33L10.70 3.33Q9.83 3.33 9.23 3.99Q8.62 4.65 8.62 5.66L8.62 5.66L8.62 7.03Q8.62 7.17 8.48 7.17L8.48 7.17L5.35 7.17Q5.24 7.17 5.24 7.03L5.24 7.03L5.24 5.66Q5.24 4.09 6.01 2.80Q6.78 1.51 8.02 0.76Q9.27 0 10.70 0L10.70 0Q12.21 0 13.44 0.77Q14.67 1.54 15.41 2.80Q16.16 4.06 16.16 5.52L16.16 5.52Q16.16 6.44 15.83 7.39Q15.51 8.34 14.95 9.07L14.95 9.07L9.63 16.38L15.93 16.38Q16.04 16.38 16.04 16.49L16.04 16.49L16.04 19.66Q16.04 19.80 15.93 19.80L15.93 19.80ZM22.93 20.08L22.93 20.08Q21.42 20.08 20.17 19.31Q18.93 18.54 18.19 17.26Q17.44 15.99 17.44 14.45L17.44 14.45L17.44 13.16Q17.44 13.02 17.58 13.02L17.58 13.02L20.72 13.02Q20.83 13.02 20.83 13.16L20.83 13.16L20.83 14.45Q20.83 15.37 21.45 16.03Q22.06 16.69 22.93 16.69L22.93 16.69Q23.80 16.69 24.42 16.02Q25.03 15.34 25.03 14.45L25.03 14.45Q25.03 13.41 23.69 12.66L23.69 12.66Q23.24 12.40 22.29 11.87Q21.34 11.34 20.50 10.86L20.50 10.86Q18.96 9.97 18.21 8.61Q17.47 7.25 17.47 5.54L17.47 5.54Q17.47 3.98 18.23 2.73Q18.98 1.48 20.23 0.76Q21.48 0.03 22.93 0.03L22.93 0.03Q24.42 0.03 25.66 0.77Q26.91 1.51 27.65 2.76Q28.39 4.00 28.39 5.54L28.39 5.54L28.39 7.84Q28.39 7.95 28.28 7.95L28.28 7.95L25.14 7.95Q25.03 7.95 25.03 7.84L25.03 7.84L25.00 5.54Q25.00 4.56 24.39 3.95Q23.77 3.33 22.93 3.33L22.93 3.33Q22.06 3.33 21.45 3.99Q20.83 4.65 20.83 5.54L20.83 5.54Q20.83 6.47 21.22 7.08Q21.62 7.70 22.65 8.26L22.65 8.26Q22.79 8.34 23.20 8.55Q23.60 8.76 24.08 9.03Q24.56 9.30 24.93 9.49Q25.31 9.69 25.40 9.74L25.40 9.74Q26.80 10.53 27.61 11.66Q28.42 12.80 28.42 14.45L28.42 14.45Q28.42 16.04 27.68 17.32Q26.94 18.59 25.69 19.33Q24.44 20.08 22.93 20.08Z" transform="translate(36.486, 74.5)"></path></svg>